<svg width="340" height="700" viewBox="0 0 340 700" fill="none" xmlns="http://www.w3.org/2000/svg">
  <!-- Glow background -->
  <g opacity="0.3">
    <ellipse cx="170" cy="350" rx="150" ry="320" fill="#0090ff" filter="url(#glow)"/>
  </g>
  
  <!-- Phone frame - Black -->
  <rect x="20" y="20" width="300" height="660" rx="45" fill="#0F172A"/>
  
  <!-- Screen bezel -->
  <rect x="28" y="28" width="284" height="644" rx="38" fill="#0F172A" stroke="#334155" stroke-width="1"/>
  
  <!-- Actual white screen -->
  <rect x="32" y="32" width="276" height="636" rx="34" fill="white"/>
  
  <!-- Notch modern style -->
  <path d="M 135 32 L 135 40 Q 135 50 145 50 L 155 50 Q 160 50 160 55 L 160 58 Q 160 63 165 63 L 175 63 Q 180 63 180 58 L 180 55 Q 180 50 185 50 L 195 50 Q 205 50 205 40 L 205 32 Z" fill="#0F172A"/>
  
  <!-- Camera in notch -->
  <circle cx="170" cy="46" r="3" fill="#1E293B"/>
  
  <!-- Bottom indicator bar -->
  <rect x="145" y="655" width="50" height="4" rx="2" fill="#CBD5E1" opacity="0.4"/>
  
  <!-- Filters -->
  <defs>
    <filter id="glow" x="-50%" y="-50%" width="200%" height="200%">
      <feGaussianBlur stdDeviation="40" result="blur"/>
      <feColorMatrix in="blur" type="matrix" values="1 0 0 0 0  0 0.56 0 0 0  0 0 1 0 0  0 0 0 1 0"/>
    </filter>
  </defs>
</svg>
